<?xml version="1.0" encoding="utf-8"?>
<!-- Generator: Adobe Illustrator 26.5.0, SVG Export Plug-In . SVG Version: 6.00 Build 0)  -->
<svg version="1.1" id="Layer_1" xmlns="http://www.w3.org/2000/svg" xmlns:xlink="http://www.w3.org/1999/xlink" x="0px" y="0px"
	 viewBox="0 0 145 47.87" style="enable-background:new 0 0 145 47.87;" xml:space="preserve">
<style type="text/css">
	.st0{enable-background:new    ;}
	.st1{fill:#FFFFFF;}
</style>
<g class="st0">
	<path class="st1" d="M20.82,30.32l-2.04,6.18H17.7l-1.52-5.13h-0.02l-1.52,5.13h-1.08l-2.04-6.18h1.03l1.56,5.13h0.02l1.57-5.13
		h0.97l1.55,5.13h0.02l1.57-5.13H20.82z"/>
	<path class="st1" d="M29.53,33.61h-5.01c0.07,1.37,0.85,2.25,2.03,2.25c0.97,0,1.78-0.59,2-1.48h0.96
		c-0.29,1.34-1.48,2.23-2.96,2.23c-1.8,0-3-1.28-3-3.2c0-1.93,1.2-3.21,3-3.21c1.79,0,2.99,1.3,2.99,3.24V33.61z M24.55,33h3.99
		c-0.13-1.25-0.9-2.06-1.99-2.06C25.44,30.94,24.68,31.75,24.55,33z"/>
	<path class="st1" d="M37.03,30.32v0.95c-0.26-0.1-0.68-0.16-1.04-0.16c-1.15,0-1.92,0.92-1.92,2.3v3.08h-0.98v-6.18h0.98v1.3h0.02
		c0.35-0.85,1.2-1.42,2.11-1.42C36.5,30.2,36.83,30.25,37.03,30.32z"/>
	<path class="st1" d="M39.55,33.41c0-1.92,1.21-3.2,3.02-3.2c1.82,0,3.03,1.28,3.03,3.2c0,1.93-1.21,3.21-3.03,3.21
		C40.76,36.62,39.55,35.34,39.55,33.41z M44.59,33.41c0-1.44-0.8-2.4-2.03-2.4c-1.21,0-2.02,0.96-2.02,2.4c0,1.44,0.8,2.4,2.02,2.4
		C43.79,35.8,44.59,34.84,44.59,33.41z"/>
	<path class="st1" d="M54.57,32.61v3.89h-0.98v-3.81c0-1-0.65-1.67-1.62-1.67c-1.09,0-1.82,0.83-1.82,2.08v3.41h-0.98v-6.18h0.98
		v1.14h0.02c0.34-0.76,1.2-1.26,2.18-1.26C53.69,30.2,54.57,31.16,54.57,32.61z"/>
	<path class="st1" d="M58.37,28.21c0-0.36,0.25-0.6,0.62-0.6c0.37,0,0.62,0.24,0.62,0.6c0,0.35-0.25,0.59-0.62,0.59
		C58.62,28.8,58.37,28.56,58.37,28.21z M58.52,30.32h0.98v6.18h-0.98V30.32z"/>
	<path class="st1" d="M63.53,27.26h0.98v9.24h-0.98V27.26z M69.64,36.5h-1.2l-3.69-3.38l3.2-2.79h1.16l-3.12,2.76L69.64,36.5z"/>
	<path class="st1" d="M77.74,30.32v6.18h-0.98v-1.22h-0.02c-0.36,0.84-1.29,1.34-2.34,1.34c-1.62,0-2.7-1.28-2.7-3.21
		c0-1.92,1.09-3.2,2.71-3.2c1.03,0,1.95,0.5,2.33,1.34h0.02v-1.22H77.74z M76.75,33.41c0-1.44-0.82-2.4-2.03-2.4
		c-1.21,0-2.03,0.96-2.03,2.4c0,1.44,0.82,2.41,2.03,2.41C75.94,35.82,76.75,34.84,76.75,33.41z"/>
	<path class="st1" d="M92.38,27.26v9.24h-0.98v-1.22h-0.02c-0.36,0.84-1.3,1.34-2.34,1.34c-1.62,0-2.7-1.28-2.7-3.21
		c0-1.92,1.09-3.2,2.71-3.2c1.03,0,1.96,0.5,2.33,1.34h0.02v-4.28H92.38z M91.39,33.41c0-1.44-0.82-2.4-2.03-2.4
		c-1.21,0-2.03,0.96-2.03,2.4c0,1.44,0.82,2.41,2.03,2.41C90.58,35.82,91.39,34.84,91.39,33.41z"/>
	<path class="st1" d="M101.75,30.32l-3.65,8.94h-0.98l1.03-2.57l-2.61-6.37h1.03l2.08,5.25h0.02l2.07-5.25H101.75z"/>
	<path class="st1" d="M104.96,27.26h0.98v9.24h-0.98V27.26z"/>
	<path class="st1" d="M115.57,30.32v6.18h-0.01c-0.67,0.65-1.13,1.34-1.13,1.74c0,0.31,0.22,0.52,0.53,0.52
		c0.19,0,0.43-0.07,0.6-0.18v0.62c-0.22,0.11-0.55,0.18-0.83,0.18c-0.7,0-1.15-0.38-1.15-0.96c0-0.47,0.48-1.21,1.21-1.92h-0.2
		v-1.22h-0.02c-0.36,0.84-1.3,1.34-2.34,1.34c-1.62,0-2.7-1.28-2.7-3.21c0-1.92,1.09-3.2,2.71-3.2c1.03,0,1.96,0.5,2.33,1.34h0.02
		v-1.22H115.57z M114.59,33.41c0-1.44-0.82-2.4-2.03-2.4c-1.21,0-2.03,0.96-2.03,2.4c0,1.44,0.82,2.41,2.03,2.41
		C113.77,35.82,114.59,34.84,114.59,33.41z"/>
	<path class="st1" d="M125.17,30.32v6.24c0,1.69-1.2,2.82-2.99,2.82c-1.62,0-2.75-0.98-2.83-2.44h0.94c0.08,0.97,0.83,1.62,1.9,1.62
		c1.2,0,2-0.78,2-1.93v-1.36h-0.02c-0.36,0.84-1.29,1.34-2.34,1.34c-1.62,0-2.7-1.28-2.7-3.21c0-1.92,1.09-3.2,2.71-3.2
		c1.03,0,1.95,0.5,2.33,1.34h0.02v-1.22H125.17z M124.19,33.41c0-1.44-0.82-2.4-2.03-2.4c-1.21,0-2.03,0.96-2.03,2.4
		c0,1.44,0.82,2.41,2.03,2.41C123.38,35.82,124.19,34.84,124.19,33.41z"/>
</g>
<g class="st0">
	<path class="st1" d="M11.85,18.41c0-1.92,1.2-3.2,3-3.2c1.43,0,2.57,0.86,2.83,2.15h-1c-0.2-0.8-0.94-1.33-1.84-1.33
		c-1.2,0-1.99,0.95-1.99,2.39c0,1.44,0.79,2.4,1.99,2.4c0.96,0,1.7-0.55,1.87-1.39h1.01c-0.23,1.33-1.38,2.21-2.88,2.21
		C13.05,21.62,11.85,20.34,11.85,18.41z"/>
	<path class="st1" d="M20.72,18.41c0-1.92,1.21-3.2,3.02-3.2c1.82,0,3.03,1.28,3.03,3.2c0,1.93-1.21,3.21-3.03,3.21
		C21.93,21.62,20.72,20.34,20.72,18.41z M25.77,18.41c0-1.44-0.8-2.4-2.03-2.4c-1.21,0-2.02,0.96-2.02,2.4c0,1.44,0.8,2.4,2.02,2.4
		C24.96,20.8,25.77,19.84,25.77,18.41z"/>
	<path class="st1" d="M34.27,15.32v0.95c-0.26-0.1-0.68-0.16-1.04-0.16c-1.15,0-1.92,0.92-1.92,2.3v3.08h-0.98v-6.18h0.98v1.3h0.02
		c0.35-0.85,1.2-1.42,2.11-1.42C33.74,15.2,34.07,15.25,34.27,15.32z"/>
	<path class="st1" d="M43.47,18.41c0,1.93-1.08,3.21-2.7,3.21c-1.04,0-1.98-0.5-2.33-1.34h-0.02v1.22h-0.98v-9.24h0.98v4.28h0.02
		c0.36-0.84,1.28-1.34,2.31-1.34C42.37,15.2,43.47,16.49,43.47,18.41z M42.46,18.41c0-1.44-0.8-2.4-2.03-2.4
		c-1.21,0-2.02,0.96-2.02,2.4c0,1.44,0.8,2.41,2.02,2.41C41.65,20.82,42.46,19.84,42.46,18.41z"/>
	<path class="st1" d="M52.56,18.61h-5.01c0.07,1.37,0.85,2.25,2.03,2.25c0.97,0,1.78-0.59,2-1.48h0.96
		c-0.29,1.34-1.48,2.23-2.96,2.23c-1.8,0-3-1.28-3-3.2c0-1.93,1.2-3.21,3-3.21c1.79,0,2.99,1.3,2.99,3.24V18.61z M47.57,18h3.99
		c-0.13-1.25-0.9-2.06-1.99-2.06C48.47,15.94,47.7,16.75,47.57,18z"/>
	<path class="st1" d="M57.32,16.05v3.73c0,0.62,0.47,1.06,1.18,1.06c0.3,0,0.67-0.07,0.92-0.19v0.73c-0.32,0.14-0.82,0.24-1.24,0.24
		c-1.1,0-1.85-0.72-1.85-1.8v-3.77H55.3v-0.73h1.07v-1.81h0.95v1.81h2.1v0.73H57.32z"/>
</g>
</svg>
