<?xml version="1.0" encoding="utf-8"?>
<!-- Generator: Adobe Illustrator 27.4.0, SVG Export Plug-In . SVG Version: 6.00 Build 0)  -->
<svg version="1.1" id="Layer_1" xmlns="http://www.w3.org/2000/svg" xmlns:xlink="http://www.w3.org/1999/xlink" x="0px" y="0px"
	 viewBox="0 0 67.8 28" style="enable-background:new 0 0 67.8 28;" xml:space="preserve">
<style type="text/css">
	.st0{enable-background:new    ;}
	.st1{fill:#161616;}
</style>
<g class="st0">
	<path class="st1" d="M6.4,15.4v9.2h-1v-1.2l0,0c-0.4,0.8-1.3,1.3-2.3,1.3c-1.6,0-2.7-1.3-2.7-3.2c0-1.9,1.1-3.2,2.7-3.2
		c1,0,2,0.5,2.3,1.3l0,0v-4.3L6.4,15.4L6.4,15.4z M5.4,21.6c0-1.4-0.8-2.4-2-2.4s-2,1-2,2.4s0.8,2.4,2,2.4S5.4,23,5.4,21.6z"/>
	<path class="st1" d="M15.8,18.5l-3.7,8.9h-1l1-2.6l-2.6-6.4h1l2.1,5.2l0,0l2.1-5.2h1.1V18.5z"/>
	<path class="st1" d="M19,15.4h1v9.2h-1V15.4z"/>
	<path class="st1" d="M29.6,18.5v6.2l0,0c-0.7,0.7-1.1,1.3-1.1,1.7c0,0.3,0.2,0.5,0.5,0.5c0.2,0,0.4-0.1,0.6-0.2v0.6
		c-0.2,0.1-0.6,0.2-0.8,0.2c-0.7,0-1.2-0.4-1.2-1c0-0.5,0.5-1.2,1.2-1.9h-0.2v-1.2l0,0c-0.4,0.8-1.3,1.3-2.3,1.3
		c-1.6,0-2.7-1.3-2.7-3.2c0-1.9,1.1-3.2,2.7-3.2c1,0,2,0.5,2.3,1.3l0,0v-1.2L29.6,18.5L29.6,18.5z M28.6,21.6c0-1.4-0.8-2.4-2-2.4
		s-2,1-2,2.4s0.8,2.4,2,2.4S28.6,23,28.6,21.6z"/>
	<path class="st1" d="M39.2,18.5v6.2c0,1.7-1.2,2.8-3,2.8c-1.6,0-2.8-1-2.8-2.4h0.9c0.1,1,0.8,1.6,1.9,1.6c1.2,0,2-0.8,2-1.9v-1.4
		l0,0c-0.4,0.8-1.3,1.3-2.3,1.3c-1.6,0-2.7-1.3-2.7-3.2c0-1.9,1.1-3.2,2.7-3.2c1,0,1.9,0.5,2.3,1.3l0,0v-1.2
		C38.2,18.5,39.2,18.5,39.2,18.5z M38.2,21.6c0-1.4-0.8-2.4-2-2.4s-2,1-2,2.4s0.8,2.4,2,2.4S38.2,23,38.2,21.6z"/>
</g>
<g class="st0">
	<path class="st1" d="M9.6,3.2l-2,6.2H6.5L5,4.3l0,0L3.5,9.4H2.4l-2-6.2h1L3,8.3l0,0l1.6-5.1h1l1.5,5.1l0,0l1.6-5.1H9.6z"/>
	<path class="st1" d="M18.3,6.5h-5c0.1,1.4,0.9,2.2,2,2.2c1,0,1.8-0.6,2-1.5h1c-0.3,1.3-1.5,2.2-3,2.2c-1.8,0-3-1.3-3-3.2
		c0-1.9,1.2-3.2,3-3.2s3,1.3,3,3.2V6.5L18.3,6.5z M13.4,5.9h4c-0.1-1.2-0.9-2.1-2-2.1S13.5,4.6,13.4,5.9z"/>
	<path class="st1" d="M25.8,3.2v1c-0.3-0.1-0.7-0.2-1-0.2c-1.2,0-1.9,0.9-1.9,2.3v3.1h-1V3.2h1v1.3l0,0c0.3-0.9,1.2-1.4,2.1-1.4
		C25.3,3.1,25.6,3.1,25.8,3.2z"/>
	<path class="st1" d="M28.4,6.3c0-1.9,1.2-3.2,3-3.2c1.8,0,3,1.3,3,3.2c0,1.9-1.2,3.2-3,3.2C29.6,9.5,28.4,8.2,28.4,6.3z M33.4,6.3
		c0-1.4-0.8-2.4-2-2.4c-1.2,0-2,1-2,2.4s0.8,2.4,2,2.4C32.6,8.7,33.4,7.7,33.4,6.3z"/>
	<path class="st1" d="M43.4,5.5v3.9h-1V5.6c0-1-0.7-1.7-1.6-1.7C39.7,3.9,39,4.7,39,6v3.4h-1V3.2h1v1.1l0,0C39.3,3.5,40.2,3,41.2,3
		C42.5,3.1,43.4,4,43.4,5.5z"/>
	<path class="st1" d="M47.2,1.1c0-0.4,0.2-0.6,0.6-0.6s0.6,0.2,0.6,0.6c0,0.4-0.2,0.6-0.6,0.6S47.2,1.4,47.2,1.1z M47.3,3.2h1v6.2
		h-1V3.2z"/>
	<path class="st1" d="M52.3,0.1h1v9.2h-1C52.3,9.4,52.3,0.1,52.3,0.1z M58.5,9.4h-1.2L53.6,6l3.2-2.8H58L54.9,6L58.5,9.4z"/>
	<path class="st1" d="M66.6,3.2v6.2h-1V8.2l0,0c-0.4,0.8-1.3,1.3-2.3,1.3c-1.6,0-2.7-1.3-2.7-3.2c0-1.9,1.1-3.2,2.7-3.2
		c1,0,1.9,0.5,2.3,1.3l0,0V3.2L66.6,3.2L66.6,3.2z M65.6,6.3c0-1.4-0.8-2.4-2-2.4s-2,1-2,2.4s0.8,2.4,2,2.4
		C64.8,8.7,65.6,7.7,65.6,6.3z"/>
</g>
</svg>
