<?xml version="1.0" encoding="utf-8"?>
<!-- Generator: Adobe Illustrator 27.2.0, SVG Export Plug-In . SVG Version: 6.00 Build 0)  -->
<svg version="1.1" id="Layer_1" xmlns="http://www.w3.org/2000/svg" xmlns:xlink="http://www.w3.org/1999/xlink" x="0px" y="0px"
	 viewBox="0 0 115 28" style="enable-background:new 0 0 115 28;" xml:space="preserve">
<style type="text/css">
	.st0{enable-background:new    ;}
	.st1{fill:#FFFFFF;}
</style>
<g class="st0">
	<path class="st1" d="M9.9,18.5l-2,6.2H6.8l-1.5-5.1h0l-1.5,5.1H2.7l-2-6.2h1l1.6,5.1h0l1.6-5.1h1l1.5,5.1h0l1.6-5.1H9.9z"/>
	<path class="st1" d="M18.6,21.8h-5c0.1,1.4,0.9,2.2,2,2.2c1,0,1.8-0.6,2-1.5h1c-0.3,1.3-1.5,2.2-3,2.2c-1.8,0-3-1.3-3-3.2
		c0-1.9,1.2-3.2,3-3.2c1.8,0,3,1.3,3,3.2L18.6,21.8L18.6,21.8z M13.7,21.2h4c-0.1-1.2-0.9-2.1-2-2.1C14.6,19.1,13.8,19.9,13.7,21.2z
		"/>
	<path class="st1" d="M26.1,18.5v1c-0.3-0.1-0.7-0.2-1-0.2c-1.2,0-1.9,0.9-1.9,2.3v3.1h-1v-6.2h1v1.3h0c0.3-0.9,1.2-1.4,2.1-1.4
		C25.6,18.4,25.9,18.4,26.1,18.5z"/>
	<path class="st1" d="M28.7,21.6c0-1.9,1.2-3.2,3-3.2c1.8,0,3,1.3,3,3.2c0,1.9-1.2,3.2-3,3.2C29.9,24.8,28.7,23.5,28.7,21.6z
		 M33.7,21.6c0-1.4-0.8-2.4-2-2.4c-1.2,0-2,1-2,2.4c0,1.4,0.8,2.4,2,2.4C32.9,24,33.7,23,33.7,21.6z"/>
	<path class="st1" d="M43.7,20.8v3.9h-1v-3.8c0-1-0.7-1.7-1.6-1.7c-1.1,0-1.8,0.8-1.8,2.1v3.4h-1v-6.2h1v1.1h0
		c0.3-0.8,1.2-1.3,2.2-1.3C42.8,18.4,43.7,19.3,43.7,20.8z"/>
	<path class="st1" d="M47.5,16.4c0-0.4,0.2-0.6,0.6-0.6s0.6,0.2,0.6,0.6c0,0.4-0.2,0.6-0.6,0.6S47.5,16.7,47.5,16.4z M47.6,18.5h1
		v6.2h-1V18.5z"/>
	<path class="st1" d="M52.6,15.4h1v9.2h-1C52.6,24.7,52.6,15.4,52.6,15.4z M58.8,24.7h-1.2l-3.7-3.4l3.2-2.8h1.2l-3.1,2.8L58.8,24.7
		z"/>
	<path class="st1" d="M66.9,18.5v6.2h-1v-1.2h0c-0.4,0.8-1.3,1.3-2.3,1.3c-1.6,0-2.7-1.3-2.7-3.2c0-1.9,1.1-3.2,2.7-3.2
		c1,0,1.9,0.5,2.3,1.3h0v-1.2L66.9,18.5L66.9,18.5z M65.9,21.6c0-1.4-0.8-2.4-2-2.4s-2,1-2,2.4c0,1.4,0.8,2.4,2,2.4
		C65.1,24,65.9,23,65.9,21.6z"/>
	<path class="st1" d="M81.5,15.4v9.2h-1v-1.2h0c-0.4,0.8-1.3,1.3-2.3,1.3c-1.6,0-2.7-1.3-2.7-3.2c0-1.9,1.1-3.2,2.7-3.2
		c1,0,2,0.5,2.3,1.3h0v-4.3L81.5,15.4L81.5,15.4z M80.5,21.6c0-1.4-0.8-2.4-2-2.4s-2,1-2,2.4c0,1.4,0.8,2.4,2,2.4
		C79.7,24,80.5,23,80.5,21.6z"/>
	<path class="st1" d="M90.9,18.5l-3.7,8.9h-1l1-2.6l-2.6-6.4h1l2.1,5.2h0l2.1-5.2H90.9z"/>
	<path class="st1" d="M94.1,15.4h1v9.2h-1V15.4z"/>
	<path class="st1" d="M104.7,18.5v6.2h0c-0.7,0.7-1.1,1.3-1.1,1.7c0,0.3,0.2,0.5,0.5,0.5c0.2,0,0.4-0.1,0.6-0.2v0.6
		c-0.2,0.1-0.6,0.2-0.8,0.2c-0.7,0-1.2-0.4-1.2-1c0-0.5,0.5-1.2,1.2-1.9h-0.2v-1.2h0c-0.4,0.8-1.3,1.3-2.3,1.3
		c-1.6,0-2.7-1.3-2.7-3.2c0-1.9,1.1-3.2,2.7-3.2c1,0,2,0.5,2.3,1.3h0v-1.2L104.7,18.5L104.7,18.5z M103.7,21.6c0-1.4-0.8-2.4-2-2.4
		s-2,1-2,2.4c0,1.4,0.8,2.4,2,2.4S103.7,23,103.7,21.6z"/>
	<path class="st1" d="M114.3,18.5v6.2c0,1.7-1.2,2.8-3,2.8c-1.6,0-2.8-1-2.8-2.4h0.9c0.1,1,0.8,1.6,1.9,1.6c1.2,0,2-0.8,2-1.9v-1.4
		h0c-0.4,0.8-1.3,1.3-2.3,1.3c-1.6,0-2.7-1.3-2.7-3.2c0-1.9,1.1-3.2,2.7-3.2c1,0,1.9,0.5,2.3,1.3h0v-1.2
		C113.3,18.5,114.3,18.5,114.3,18.5z M113.3,21.6c0-1.4-0.8-2.4-2-2.4s-2,1-2,2.4c0,1.4,0.8,2.4,2,2.4C112.5,24,113.3,23,113.3,21.6
		z"/>
</g>
<g class="st0">
	<path class="st1" d="M1,6.6c0-1.9,1.2-3.2,3-3.2c1.4,0,2.6,0.9,2.8,2.2h-1C5.6,4.7,4.9,4.2,4,4.2c-1.2,0-2,1-2,2.4C2,8,2.8,9,4,9
		c1,0,1.7-0.5,1.9-1.4h1C6.6,8.9,5.5,9.8,4,9.8C2.2,9.8,1,8.5,1,6.6z"/>
	<path class="st1" d="M9.8,6.6c0-1.9,1.2-3.2,3-3.2c1.8,0,3,1.3,3,3.2c0,1.9-1.2,3.2-3,3.2C11,9.8,9.8,8.5,9.8,6.6z M14.9,6.6
		c0-1.4-0.8-2.4-2-2.4c-1.2,0-2,1-2,2.4s0.8,2.4,2,2.4C14.1,9,14.9,8,14.9,6.6z"/>
	<path class="st1" d="M23.4,3.5v1c-0.3-0.1-0.7-0.2-1-0.2c-1.2,0-1.9,0.9-1.9,2.3v3.1h-1V3.5h1v1.3h0c0.4-0.9,1.2-1.4,2.1-1.4
		C22.9,3.4,23.2,3.4,23.4,3.5z"/>
	<path class="st1" d="M32.6,6.6c0,1.9-1.1,3.2-2.7,3.2c-1,0-2-0.5-2.3-1.3h0v1.2h-1V0.4h1v4.3h0c0.4-0.8,1.3-1.3,2.3-1.3
		C31.5,3.4,32.6,4.7,32.6,6.6z M31.6,6.6c0-1.4-0.8-2.4-2-2.4c-1.2,0-2,1-2,2.4s0.8,2.4,2,2.4S31.6,8,31.6,6.6z"/>
	<path class="st1" d="M41.7,6.8h-5c0.1,1.4,0.8,2.3,2,2.3c1,0,1.8-0.6,2-1.5h1c-0.3,1.3-1.5,2.2-3,2.2c-1.8,0-3-1.3-3-3.2
		c0-1.9,1.2-3.2,3-3.2c1.8,0,3,1.3,3,3.2L41.7,6.8L41.7,6.8z M36.7,6.2h4c-0.1-1.2-0.9-2.1-2-2.1C37.6,4.1,36.8,4.9,36.7,6.2z"/>
	<path class="st1" d="M46.4,4.2v3.7c0,0.6,0.5,1.1,1.2,1.1c0.3,0,0.7-0.1,0.9-0.2v0.7c-0.3,0.1-0.8,0.2-1.2,0.2
		c-1.1,0-1.8-0.7-1.8-1.8V4.2h-1V3.5h1.1V1.7h1v1.8h2.1v0.7C48.5,4.2,46.4,4.2,46.4,4.2z"/>
</g>
</svg>
